<svg width="66" height="60" viewBox="0 0 66 60" fill="none" xmlns="http://www.w3.org/2000/svg">
<path d="M65.0332 28.9261C65.5671 28.9261 66 28.4932 66 27.9593V14.1908C66 12.218 64.395 10.613 62.4221 10.613H34.9898V3.52019C34.9898 1.98762 33.743 0.740967 32.2106 0.740967H19.5154C18.9814 0.740967 18.5486 1.17383 18.5486 1.70776C18.5486 2.24169 18.9814 2.67456 19.5154 2.67456H32.2106C32.6768 2.67456 33.0561 3.0538 33.0561 3.52006C33.0561 4.14177 33.0561 24.519 33.0561 25.1403C33.0561 25.6066 32.6768 25.986 32.2106 25.986H29.6737C28.8405 25.986 28.1623 26.6639 28.1623 27.4973V32.3719L23.2684 26.7314C22.8573 26.2576 22.2617 25.9858 21.6343 25.9858C21.1272 25.9858 3.25424 25.9858 2.77922 25.9858C2.31296 25.9858 1.93372 25.6066 1.93372 25.1403V3.52019C1.93372 3.05393 2.31296 2.67469 2.77922 2.67469H15.0034C15.5373 2.67469 15.9702 2.24182 15.9702 1.70789C15.9702 1.17396 15.5373 0.741096 15.0034 0.741096H2.77922C1.24678 0.740967 0 1.98775 0 3.52019V25.1406C0 26.6732 1.24678 27.9198 2.77922 27.9198H16.4446V45.3375C16.4446 47.3104 18.0496 48.9154 20.0225 48.9154H23.4947V57.577C23.4947 59.1312 25.4265 59.8494 26.4432 58.6778L34.6873 49.1763C34.8311 49.0106 35.0394 48.9154 35.259 48.9154H62.4221C64.395 48.9154 66 47.3104 66 45.3375V32.4711C66 31.9372 65.5671 31.5043 65.0332 31.5043C64.4993 31.5043 64.0664 31.9372 64.0664 32.4711V45.3375C64.0664 46.2441 63.3289 46.9817 62.4222 46.9817H35.2591C34.4789 46.9817 33.7381 47.3197 33.2267 47.9089L25.4284 56.8967V48.7328C25.4284 47.7671 24.6429 46.9816 23.6772 46.9816H20.0225C19.1159 46.9816 18.3783 46.2441 18.3783 45.3374V27.9199H21.6343C21.701 27.9199 21.7641 27.9488 21.8077 27.9991L22.9414 29.3058C22.6307 29.4666 22.418 29.7904 22.418 30.1643C22.418 30.6983 22.8508 31.1311 23.3848 31.1311H24.5254L27.5121 34.5734H23.3848C22.8508 34.5734 22.418 35.0063 22.418 35.5402C22.418 36.0742 22.8508 36.507 23.3848 36.507H58.5711C59.1051 36.507 59.5379 36.0742 59.5379 35.5402C59.5379 35.0063 59.1051 34.5734 58.5711 34.5734H29.7589C29.9831 34.3052 30.096 33.973 30.096 33.6367V31.1313H58.5711C59.1051 31.1313 59.5379 30.6984 59.5379 30.1645C59.5379 29.6305 59.1051 29.1975 58.5711 29.1975H30.096V27.9199H32.2104C33.5245 27.9199 34.6358 27.0028 34.9189 25.7552H58.5711C59.1051 25.7552 59.5379 25.3224 59.5379 24.7884C59.5379 24.2545 59.1051 23.8216 58.5711 23.8216H34.9898V20.3793H58.5711C59.1051 20.3793 59.5379 19.9465 59.5379 19.4125C59.5379 18.8786 59.1051 18.4457 58.5711 18.4457H34.9898V12.5468H62.4221C63.3287 12.5468 64.0663 13.2843 64.0663 14.1909V27.9594C64.0663 28.4932 64.4991 28.9261 65.0332 28.9261Z" fill="#F8BE4D"/>
</svg>
